<svg width="0" height="0" class="hidden">
  <symbol version="1.0" xmlns="http://www.w3.org/2000/svg" preserveAspectRatio="xMidYMid meet" viewBox="0 0 96.000000 96.000000" id="menuIcon">
    <g transform="translate(0.000000,96.000000) scale(0.100000,-0.100000)" fill="#2F8F9D" stroke="none">
      <path d="M147 812 c-23 -25 -22 -85 1 -105 25 -23 85 -22 105 1 23 25 22 85
-1 105 -25 23 -85 22 -105 -1z"></path>
      <path d="M427 812 c-23 -25 -22 -85 1 -105 25 -23 85 -22 105 1 23 25 22 85
-1 105 -25 23 -85 22 -105 -1z"></path>
      <path d="M707 812 c-23 -25 -22 -85 1 -105 25 -23 85 -22 105 1 23 25 22 85
-1 105 -25 23 -85 22 -105 -1z"></path>
      <path d="M147 532 c-23 -25 -22 -85 1 -105 25 -23 85 -22 105 1 23 25 22 85
-1 105 -25 23 -85 22 -105 -1z"></path>
      <path d="M427 532 c-23 -25 -22 -85 1 -105 25 -23 85 -22 105 1 23 25 22 85
-1 105 -25 23 -85 22 -105 -1z"></path>
      <path d="M707 532 c-23 -25 -22 -85 1 -105 25 -23 85 -22 105 1 23 25 22 85
-1 105 -25 23 -85 22 -105 -1z"></path>
      <path d="M147 252 c-23 -25 -22 -85 1 -105 25 -23 85 -22 105 1 23 25 22 85
-1 105 -25 23 -85 22 -105 -1z"></path>
      <path d="M427 252 c-23 -25 -22 -85 1 -105 25 -23 85 -22 105 1 23 25 22 85
-1 105 -25 23 -85 22 -105 -1z"></path>
      <path d="M707 252 c-23 -25 -22 -85 1 -105 25 -23 85 -22 105 1 23 25 22 85
-1 105 -25 23 -85 22 -105 -1z"></path>
    </g>
  </symbol>
</svg>